<?xml version="1.0" encoding="utf-8"?>
<!-- Generator: Adobe Illustrator 23.0.2, SVG Export Plug-In . SVG Version: 6.00 Build 0)  -->
<svg version="1.1" id="Layer_1" xmlns="http://www.w3.org/2000/svg" xmlns:xlink="http://www.w3.org/1999/xlink" x="0px" y="0px"
	 viewBox="0 0 245.2 37.8" style="enable-background:new 0 0 245.2 37.8;" xml:space="preserve">
<style type="text/css">
	.st0{fill:#FED000;}
	.st1{fill:#FFFFFF;}
	.st2{fill:#EABE00;}
	.st3{fill:#FFD000;}
</style>
<g>
	<g>
		<path class="st0" d="M93.7,11.9c-0.1,0.2-0.2,0.4-0.4,0.4c-0.1,0.1-0.3,0.1-0.5,0.1c-0.2,0-0.4-0.1-0.7-0.2
			c-0.2-0.1-0.5-0.3-0.9-0.5c-0.3-0.2-0.7-0.3-1.2-0.5c-0.4-0.1-1-0.2-1.6-0.2c-0.5,0-1,0.1-1.4,0.2c-0.4,0.1-0.7,0.3-1,0.5
			c-0.3,0.2-0.5,0.5-0.6,0.8c-0.1,0.3-0.2,0.7-0.2,1c0,0.5,0.1,0.9,0.4,1.2c0.3,0.3,0.6,0.6,1.1,0.8c0.5,0.2,1,0.4,1.6,0.6
			c0.6,0.2,1.2,0.4,1.8,0.6c0.6,0.2,1.2,0.4,1.8,0.7c0.6,0.3,1.1,0.6,1.6,1c0.5,0.4,0.8,0.9,1.1,1.5c0.3,0.6,0.4,1.3,0.4,2.2
			c0,0.9-0.2,1.8-0.5,2.6c-0.3,0.8-0.8,1.5-1.4,2.1c-0.6,0.6-1.4,1.1-2.3,1.4c-0.9,0.3-1.9,0.5-3.1,0.5c-0.7,0-1.3-0.1-2-0.2
			c-0.7-0.1-1.3-0.3-1.9-0.5c-0.6-0.2-1.2-0.5-1.7-0.9c-0.5-0.3-1-0.7-1.4-1.1l1.1-1.8c0.1-0.1,0.2-0.2,0.4-0.3
			c0.2-0.1,0.3-0.1,0.5-0.1c0.2,0,0.5,0.1,0.8,0.3c0.3,0.2,0.6,0.4,1,0.6c0.4,0.2,0.8,0.5,1.4,0.6c0.5,0.2,1.1,0.3,1.9,0.3
			c1.1,0,2-0.3,2.6-0.8c0.6-0.5,0.9-1.3,0.9-2.2c0-0.5-0.1-1-0.4-1.3c-0.3-0.3-0.6-0.6-1.1-0.9c-0.5-0.2-1-0.4-1.6-0.6
			c-0.6-0.2-1.2-0.3-1.8-0.5c-0.6-0.2-1.2-0.4-1.8-0.7s-1.1-0.6-1.6-1c-0.5-0.4-0.8-1-1.1-1.6c-0.3-0.6-0.4-1.4-0.4-2.4
			c0-0.8,0.2-1.5,0.5-2.2c0.3-0.7,0.8-1.3,1.3-1.9c0.6-0.6,1.3-1,2.2-1.3C86.5,8.1,87.4,8,88.5,8c1.2,0,2.4,0.2,3.5,0.6
			c1.1,0.4,1.9,0.9,2.7,1.6L93.7,11.9z"/>
		<path class="st0" d="M108.4,17.3c-0.1,0.1-0.2,0.2-0.3,0.3c-0.1,0.1-0.3,0.1-0.4,0.1c-0.2,0-0.4-0.1-0.5-0.2
			c-0.2-0.1-0.4-0.2-0.6-0.4c-0.2-0.1-0.5-0.3-0.9-0.4c-0.3-0.1-0.8-0.2-1.2-0.2c-0.6,0-1.2,0.1-1.7,0.3c-0.5,0.2-0.9,0.5-1.2,1
			c-0.3,0.4-0.6,0.9-0.7,1.5c-0.2,0.6-0.2,1.3-0.2,2c0,0.8,0.1,1.5,0.3,2.1c0.2,0.6,0.4,1.1,0.7,1.5c0.3,0.4,0.7,0.7,1.2,0.9
			c0.5,0.2,1,0.3,1.6,0.3c0.6,0,1-0.1,1.4-0.2c0.4-0.1,0.7-0.3,0.9-0.5c0.2-0.2,0.5-0.3,0.6-0.5c0.2-0.1,0.4-0.2,0.6-0.2
			c0.3,0,0.5,0.1,0.7,0.3l1,1.3c-0.4,0.5-0.8,0.8-1.3,1.1c-0.5,0.3-1,0.6-1.5,0.7s-1,0.3-1.6,0.4c-0.5,0.1-1.1,0.1-1.6,0.1
			c-0.9,0-1.8-0.2-2.6-0.5c-0.8-0.3-1.5-0.8-2.1-1.5c-0.6-0.6-1.1-1.4-1.4-2.4c-0.4-0.9-0.5-2-0.5-3.2c0-1.1,0.2-2.1,0.5-3
			c0.3-0.9,0.8-1.7,1.4-2.4c0.6-0.7,1.4-1.2,2.3-1.6c0.9-0.4,2-0.6,3.1-0.6c1.1,0,2.1,0.2,2.9,0.5c0.8,0.4,1.6,0.9,2.3,1.5
			L108.4,17.3z"/>
		<path class="st0" d="M111.8,29V13.9h2.1c0.4,0,0.6,0.1,0.8,0.2c0.1,0.1,0.2,0.4,0.3,0.7l0.2,2c0.5-0.9,1.2-1.6,1.9-2.1
			c0.7-0.5,1.5-0.8,2.4-0.8c0.7,0,1.4,0.2,1.8,0.5l-0.5,2.6c0,0.2-0.1,0.3-0.2,0.4c-0.1,0.1-0.2,0.1-0.4,0.1c-0.1,0-0.3,0-0.6-0.1
			c-0.3-0.1-0.6-0.1-1-0.1c-0.8,0-1.4,0.2-1.9,0.6c-0.5,0.4-1,1-1.4,1.8V29H111.8z"/>
		<path class="st0" d="M130,14c0.9,0,1.8,0.1,2.6,0.4c0.8,0.3,1.5,0.7,2.1,1.3c0.6,0.6,1,1.3,1.3,2.1c0.3,0.8,0.5,1.8,0.5,2.8
			c0,0.3,0,0.5,0,0.7c0,0.2-0.1,0.3-0.1,0.4c-0.1,0.1-0.1,0.2-0.3,0.2c-0.1,0-0.2,0.1-0.4,0.1h-9.3c0.1,1.5,0.5,2.6,1.2,3.3
			c0.7,0.7,1.7,1.1,2.9,1.1c0.6,0,1.1-0.1,1.5-0.2c0.4-0.1,0.8-0.3,1.1-0.4c0.3-0.2,0.6-0.3,0.8-0.4c0.2-0.1,0.5-0.2,0.7-0.2
			c0.1,0,0.3,0,0.4,0.1c0.1,0.1,0.2,0.1,0.3,0.2l1.1,1.3c-0.4,0.5-0.8,0.8-1.3,1.1c-0.5,0.3-1,0.6-1.6,0.7c-0.5,0.2-1.1,0.3-1.7,0.4
			c-0.6,0.1-1.1,0.1-1.6,0.1c-1,0-2-0.2-2.9-0.5s-1.7-0.8-2.3-1.5c-0.7-0.7-1.2-1.5-1.6-2.5c-0.4-1-0.6-2.1-0.6-3.4
			c0-1,0.2-1.9,0.5-2.8c0.3-0.9,0.8-1.6,1.4-2.3c0.6-0.7,1.4-1.2,2.3-1.5C127.9,14.1,128.9,14,130,14z M130.1,16.5
			c-1.1,0-1.9,0.3-2.5,0.9c-0.6,0.6-1,1.4-1.1,2.5h6.8c0-0.5-0.1-0.9-0.2-1.3c-0.1-0.4-0.3-0.8-0.6-1.1c-0.3-0.3-0.6-0.5-1-0.7
			C131.1,16.6,130.6,16.5,130.1,16.5z"/>
		<path class="st0" d="M145.6,14c0.9,0,1.8,0.1,2.6,0.4c0.8,0.3,1.5,0.7,2.1,1.3c0.6,0.6,1,1.3,1.3,2.1c0.3,0.8,0.5,1.8,0.5,2.8
			c0,0.3,0,0.5,0,0.7c0,0.2-0.1,0.3-0.1,0.4c-0.1,0.1-0.1,0.2-0.3,0.2c-0.1,0-0.2,0.1-0.4,0.1H142c0.1,1.5,0.5,2.6,1.2,3.3
			c0.7,0.7,1.7,1.1,2.9,1.1c0.6,0,1.1-0.1,1.5-0.2c0.4-0.1,0.8-0.3,1.1-0.4c0.3-0.2,0.6-0.3,0.8-0.4c0.2-0.1,0.5-0.2,0.7-0.2
			c0.1,0,0.3,0,0.4,0.1c0.1,0.1,0.2,0.1,0.3,0.2l1.1,1.3c-0.4,0.5-0.8,0.8-1.3,1.1c-0.5,0.3-1,0.6-1.6,0.7c-0.5,0.2-1.1,0.3-1.7,0.4
			c-0.6,0.1-1.1,0.1-1.6,0.1c-1,0-2-0.2-2.9-0.5s-1.7-0.8-2.3-1.5c-0.7-0.7-1.2-1.5-1.6-2.5c-0.4-1-0.6-2.1-0.6-3.4
			c0-1,0.2-1.9,0.5-2.8c0.3-0.9,0.8-1.6,1.4-2.3c0.6-0.7,1.4-1.2,2.3-1.5C143.5,14.1,144.5,14,145.6,14z M145.7,16.5
			c-1.1,0-1.9,0.3-2.5,0.9c-0.6,0.6-1,1.4-1.1,2.5h6.8c0-0.5-0.1-0.9-0.2-1.3c-0.1-0.4-0.3-0.8-0.6-1.1c-0.3-0.3-0.6-0.5-1-0.7
			C146.7,16.6,146.2,16.5,145.7,16.5z"/>
		<path class="st0" d="M155,29V14h2.2c0.5,0,0.8,0.2,0.9,0.6l0.2,1.4c0.3-0.3,0.6-0.6,1-0.8c0.3-0.2,0.7-0.5,1.1-0.6
			c0.4-0.2,0.8-0.3,1.2-0.4c0.4-0.1,0.9-0.1,1.4-0.1c0.8,0,1.5,0.1,2.2,0.4c0.6,0.3,1.2,0.7,1.6,1.1c0.4,0.5,0.7,1.1,1,1.8
			c0.2,0.7,0.3,1.4,0.3,2.2V29h-3.6v-9.5c0-0.9-0.2-1.6-0.6-2.1c-0.4-0.5-1.1-0.7-1.9-0.7c-0.6,0-1.2,0.1-1.8,0.4
			c-0.5,0.3-1.1,0.7-1.6,1.1V29H155z"/>
		<path class="st1" d="M186.4,23.9c0.2,0,0.4,0.1,0.6,0.2l1.6,1.7c-0.9,1-1.9,1.9-3.2,2.4c-1.3,0.6-2.8,0.8-4.5,0.8
			c-1.6,0-3-0.3-4.2-0.8c-1.3-0.5-2.3-1.3-3.2-2.2c-0.9-0.9-1.6-2.1-2-3.4c-0.5-1.3-0.7-2.7-0.7-4.3c0-1.6,0.3-3,0.8-4.3
			c0.5-1.3,1.3-2.4,2.2-3.4c1-0.9,2.1-1.7,3.4-2.2c1.3-0.5,2.8-0.8,4.4-0.8c1.6,0,2.9,0.2,4.1,0.7c1.2,0.5,2.2,1.2,3,2l-1.3,1.8
			c-0.1,0.1-0.2,0.2-0.3,0.3c-0.1,0.1-0.3,0.1-0.5,0.1c-0.2,0-0.5-0.1-0.7-0.3c-0.2-0.2-0.5-0.4-0.9-0.6c-0.4-0.2-0.8-0.4-1.4-0.6
			c-0.6-0.2-1.3-0.3-2.1-0.3c-1,0-1.9,0.2-2.7,0.5c-0.8,0.3-1.6,0.8-2.1,1.5c-0.6,0.6-1.1,1.4-1.4,2.3s-0.5,1.9-0.5,3.1
			c0,1.2,0.2,2.2,0.5,3.1c0.3,0.9,0.8,1.7,1.4,2.3c0.6,0.6,1.3,1.1,2,1.4c0.8,0.3,1.6,0.5,2.5,0.5c0.5,0,1,0,1.5-0.1
			c0.4-0.1,0.8-0.1,1.2-0.3c0.4-0.1,0.7-0.3,1-0.5c0.3-0.2,0.6-0.4,1-0.7c0.1-0.1,0.2-0.2,0.3-0.2C186.2,23.9,186.3,23.9,186.4,23.9
			z"/>
		<path class="st1" d="M195.1,7.6V29h-3.6V7.6H195.1z"/>
		<path class="st1" d="M205.6,14c1.1,0,2.1,0.2,3,0.5c0.9,0.4,1.7,0.9,2.3,1.5c0.6,0.6,1.1,1.4,1.5,2.4c0.4,0.9,0.5,2,0.5,3.1
			c0,1.2-0.2,2.2-0.5,3.1c-0.4,0.9-0.8,1.7-1.5,2.4c-0.6,0.7-1.4,1.2-2.3,1.5c-0.9,0.4-1.9,0.5-3,0.5c-1.1,0-2.1-0.2-3.1-0.5
			c-0.9-0.4-1.7-0.9-2.3-1.5c-0.6-0.7-1.2-1.4-1.5-2.4c-0.4-0.9-0.5-2-0.5-3.1c0-1.2,0.2-2.2,0.5-3.1c0.4-0.9,0.9-1.7,1.5-2.4
			c0.6-0.6,1.4-1.1,2.3-1.5C203.5,14.1,204.5,14,205.6,14z M205.6,26.3c1.2,0,2.2-0.4,2.8-1.2c0.6-0.8,0.9-2,0.9-3.6
			c0-1.6-0.3-2.8-0.9-3.6c-0.6-0.8-1.5-1.2-2.8-1.2c-1.3,0-2.2,0.4-2.8,1.2c-0.6,0.8-0.9,2-0.9,3.6s0.3,2.8,0.9,3.6
			C203.4,25.9,204.4,26.3,205.6,26.3z"/>
		<path class="st1" d="M219.1,13.9v9.5c0,0.9,0.2,1.6,0.6,2.1c0.4,0.5,1.1,0.7,1.9,0.7c0.6,0,1.2-0.1,1.8-0.4
			c0.5-0.3,1.1-0.6,1.6-1.1V13.9h3.6V29h-2.2c-0.5,0-0.8-0.2-0.9-0.6l-0.2-1.4c-0.3,0.3-0.6,0.6-1,0.8c-0.3,0.3-0.7,0.5-1.1,0.6
			c-0.4,0.2-0.8,0.3-1.2,0.4c-0.4,0.1-0.9,0.1-1.4,0.1c-0.8,0-1.5-0.1-2.2-0.4c-0.6-0.3-1.2-0.7-1.6-1.1c-0.4-0.5-0.8-1.1-1-1.8
			c-0.2-0.7-0.3-1.4-0.3-2.2v-9.5H219.1z"/>
		<path class="st1" d="M243,29c-0.5,0-0.8-0.2-0.9-0.6l-0.3-1.6c-0.3,0.3-0.6,0.7-1,0.9s-0.7,0.5-1.1,0.7c-0.4,0.2-0.8,0.4-1.3,0.5
			C238,29,237.5,29,237,29c-0.8,0-1.6-0.2-2.3-0.5c-0.7-0.3-1.3-0.8-1.8-1.4c-0.5-0.6-0.9-1.4-1.1-2.3c-0.3-0.9-0.4-2-0.4-3.2
			c0-1.1,0.2-2.1,0.5-3c0.3-0.9,0.7-1.7,1.3-2.4c0.6-0.7,1.2-1.2,2-1.6c0.8-0.4,1.7-0.6,2.7-0.6c0.8,0,1.6,0.1,2.1,0.4
			c0.6,0.3,1.1,0.6,1.6,1V7.7h3.6V29H243z M238.2,26.2c0.8,0,1.4-0.2,1.9-0.5c0.5-0.3,1-0.7,1.5-1.3v-6.6c-0.4-0.5-0.9-0.8-1.3-1
			c-0.5-0.2-1-0.3-1.6-0.3c-0.5,0-1,0.1-1.5,0.3s-0.8,0.5-1.1,0.9c-0.3,0.4-0.5,0.9-0.7,1.5c-0.2,0.6-0.2,1.4-0.2,2.2
			c0,0.9,0.1,1.6,0.2,2.2c0.1,0.6,0.3,1.1,0.6,1.5c0.3,0.4,0.6,0.6,1,0.8C237.3,26.1,237.8,26.2,238.2,26.2z"/>
	</g>
	<path class="st1" d="M42.9,3.6l0,12.3l4.2,1.1L47.1,3.4c0-0.4-0.1-0.7-0.2-1.1L42.9,3.6z"/>
	<g>
		<path class="st2" d="M38.5,37.8l-7.8-5c3.4-2.2,5.6-6.4,5.6-10.7c0-6.8-5.6-12.3-12.5-12.3c-4.9,0-9.2,2.9-11.2,7
			c-0.7-0.1-1.4-0.2-2.1-0.2C4.7,16.5,0,21.5,0,27.3c0,3.2,1.4,6,3.7,8c1.7,1.6,3.9,2.5,6.3,2.5L38.5,37.8z"/>
		<path class="st1" d="M47.2,16.3L47.1,2.1C47.1,1,46.2,0,45,0L11.4,0c-0.6,0-1.1,0.2-1.5,0.6C9.5,1,9.3,1.5,9.3,2.1L9.5,26
			c0,1.2,1,2.1,2.1,2.1l6.3,0l2-4.2l-6.3,0L13.5,4.2l29.4,0"/>
		<path class="st1" d="M10.6,26.5c0.6,0.9,1.3,1.6,2.4,1.6l8.1,0l1.8-3.8l0-0.4l0-0.1l-9.5,0L10.6,26.5z"/>
		<path class="st3" d="M51.3,23.2C50.6,18,46.1,14,40.7,14c-4.2,0-7.9,2.4-9.6,6c-0.5-0.1-1.1-0.2-1.6-0.2c-5,0-9.1,4-9.1,9
			c0,0,0,0,0,0c0,0.5,0,8.7-9.2,8.9v0.1h11.4h4.8h23.5c4.1,0,7.4-3.3,7.4-7.3C58.2,26.6,55.1,23.4,51.3,23.2z"/>
	</g>
</g>
</svg>
